# xmcd CD database file
#
# Track frame offsets:
#	150
#	31650
#	46367
#	60930
#	75882
#	86325
#	98110
#	111577
#	122935
#	134492
#	148295
#	159080
#	170122
#	184075
#	202295
#	213887
#	225522
#	238002
#	250510
#	264200
#
# Disc length: 3706 seconds
#
# Revision: 0
# Processed by: cddbd v1.5.2PL0 Copyright (c) Steve Scherf et al.
# Submitted via: CDex 1.70beta2
#
DISCID=0b0e7814
DTITLE=Django Reinhardt - 20 Chansons d'Or
DYEAR=2006
DGENRE=Jazz
TTITLE0=Nuages
TTITLE1=Sweet Georgia Brown
TTITLE2=I Get A Kick Out Of You
TTITLE3=Improvisation Sur Le 1er Mouvement Du Concerto En Re Mineur de J. S. Bach
TTITLE4=La Cigale Et La Fourmi
TTITLE5=Tears
TTITLE6=Daphne
TTITLE7=Belleville
TTITLE8=Djangology
TTITLE9=Sifflez En Travaillant
TTITLE10=Monmartre
TTITLE11=Naguine
TTITLE12=Echoes Of Spain
TTITLE13=Bolero
TTITLE14=Tiger Rag
TTITLE15=How High The Moon
TTITLE16=Echoes Of France (La Marseillaise)
TTITLE17=Stockholm
TTITLE18=Swing De Paris
TTITLE19=The Sheik Of Araby
EXTD=YEAR: 2006
EXTT0=
EXTT1=
EXTT2=
EXTT3=
EXTT4=
EXTT5=
EXTT6=
EXTT7=
EXTT8=
EXTT9=
EXTT10=
EXTT11=
EXTT12=
EXTT13=
EXTT14=
EXTT15=
EXTT16=
EXTT17=
EXTT18=
EXTT19=
PLAYORDER=
